# xmcd
#
# Track frame offsets:
#	150
#	13055
#	27747
#	40290
#	51599
#	64046
#	77586
#	88574
#	107458
#	118825
#	131145
#	143098
#	157714
#	170105
#	184562
#
# Disc length: 2673 seconds
#
# Revision: 0
# Processed by: cddbd v1.5.2PL0 Copyright (c) Steve Scherf et al.
# Submitted via: EZCDAudioConverter 2.1.7.1
#
DISCID=ca0a6f0f
DTITLE=V/A - Small Faces and Friends
DYEAR=2014
DGENRE=MOJO
TTITLE0=Small Faces - Here Come The Nice [French EP Version]
TTITLE1=Billy Nicholls - Girl From New York
TTITLE2=Nico - I'm Not Sayin'
TTITLE3=Chris Farlowe - My Way Of Giving
TTITLE4=The Nice - The Thoughts Of Emerlist Davjack
TTITLE5=Fleur De Lys - Circles
TTITLE6=Nicky Scott - Backstreet Girl
TTITLE7=Humble Pie - Wrist Job
TTITLE8=Amen Corner - Hello Susie
TTITLE9=Duncan Browne - On The Bombsite
TTITLE10=Twice As Much - Green Circles
TTITLE11=P.P. Arnold - (If You Think You're) Groovy
TTITLE12=Murray Head - She Was Perfection
TTITLE13=Rod Stewart - So Much To Say
TTITLE14=Small Faces - All Or Nothing [Live]
EXTD=
EXTT0=
EXTT1=
EXTT2=
EXTT3=
EXTT4=
EXTT5=
EXTT6=
EXTT7=
EXTT8=
EXTT9=
EXTT10=
EXTT11=
EXTT12=
EXTT13=
EXTT14=
PLAYORDER=
